HIERARCHY
ROOT mixamorig:Hips
{
	OFFSET -0.000008 104.274872 1.554316
	CHANNELS 6 Xposition Yposition Zposition Xrotation Yrotation Zrotation
	JOINT mixamorig:Spine
	{
		OFFSET -0.000005 10.181595 0.131519
		CHANNELS 6 Xposition Yposition Zposition Xrotation Yrotation Zrotation
		JOINT mixamorig:Spine1
		{
			OFFSET -0.000000 9.893959 -1.470707
			CHANNELS 6 Xposition Yposition Zposition Xrotation Yrotation Zrotation
			JOINT mixamorig:Spine2
			{
				OFFSET -0.000000 9.220757 -1.370641
				CHANNELS 6 Xposition Yposition Zposition Xrotation Yrotation Zrotation
				JOINT mixamorig:Neck
				{
					OFFSET 0.000001 16.740417 -2.049036
					CHANNELS 6 Xposition Yposition Zposition Xrotation Yrotation Zrotation
					JOINT mixamorig:Head
					{
						OFFSET 0.000000 9.617874 1.685006
						CHANNELS 6 Xposition Yposition Zposition Xrotation Yrotation Zrotation
						JOINT mixamorig:HeadTop_End
						{
							OFFSET 0.000002 22.037354 7.501101
							CHANNELS 6 Xposition Yposition Zposition Xrotation Yrotation Zrotation
							End Site
							{
								OFFSET 0.000168 2310.654297 -282.823242
							}
						}
					}
				}
				JOINT mixamorig:RightShoulder
				{
					OFFSET -4.569970 11.014908 -2.160885
					CHANNELS 6 Xposition Yposition Zposition Xrotation Yrotation Zrotation
					JOINT mixamorig:RightArm
					{
						OFFSET -10.592851 -0.524811 -2.232101
						CHANNELS 6 Xposition Yposition Zposition Xrotation Yrotation Zrotation
						JOINT mixamorig:RightForeArm
						{
							OFFSET -27.841511 0.000031 -0.000004
							CHANNELS 6 Xposition Yposition Zposition Xrotation Yrotation Zrotation
							JOINT mixamorig:RightHand
							{
								OFFSET -28.328831 -0.000015 0.000015
								CHANNELS 6 Xposition Yposition Zposition Xrotation Yrotation Zrotation
								JOINT mixamorig:RightHandThumb1
								{
									OFFSET -2.464806 -1.573990 2.681852
									CHANNELS 6 Xposition Yposition Zposition Xrotation Yrotation Zrotation
									JOINT mixamorig:RightHandThumb2
									{
										OFFSET -3.215179 -1.872803 1.924282
										CHANNELS 6 Xposition Yposition Zposition Xrotation Yrotation Zrotation
										JOINT mixamorig:RightHandThumb3
										{
											OFFSET -2.654831 -1.527969 1.512609
											CHANNELS 6 Xposition Yposition Zposition Xrotation Yrotation Zrotation
											JOINT mixamorig:RightHandThumb4
											{
												OFFSET -2.018814 -1.152008 1.108052
												CHANNELS 6 Xposition Yposition Zposition Xrotation Yrotation Zrotation
												End Site
												{
													OFFSET -188.809540 -114.533607 132.431396
												}
											}
										}
									}
								}
								JOINT mixamorig:RightHandIndex1
								{
									OFFSET -9.108284 -0.517868 2.259835
									CHANNELS 6 Xposition Yposition Zposition Xrotation Yrotation Zrotation
									JOINT mixamorig:RightHandIndex2
									{
										OFFSET -3.699989 0.000000 0.001215
										CHANNELS 6 Xposition Yposition Zposition Xrotation Yrotation Zrotation
										JOINT mixamorig:RightHandIndex3
										{
											OFFSET -2.850006 0.000031 -0.000522
											CHANNELS 6 Xposition Yposition Zposition Xrotation Yrotation Zrotation
											JOINT mixamorig:RightHandIndex4
											{
												OFFSET -2.772186 -0.000015 -0.000020
												CHANNELS 6 Xposition Yposition Zposition Xrotation Yrotation Zrotation
												End Site
												{
													OFFSET -277.218445 0.000000 -0.050231
												}
											}
										}
									}
								}
								JOINT mixamorig:RightHandMiddle1
								{
									OFFSET -9.532516 -0.000031 -0.000023
									CHANNELS 6 Xposition Yposition Zposition Xrotation Yrotation Zrotation
									JOINT mixamorig:RightHandMiddle2
									{
										OFFSET -3.700005 -0.000015 0.003713
										CHANNELS 6 Xposition Yposition Zposition Xrotation Yrotation Zrotation
										JOINT mixamorig:RightHandMiddle3
										{
											OFFSET -2.949974 0.000015 -0.002054
											CHANNELS 6 Xposition Yposition Zposition Xrotation Yrotation Zrotation
											JOINT mixamorig:RightHandMiddle4
											{
												OFFSET -2.946640 0.000000 -0.000156
												CHANNELS 6 Xposition Yposition Zposition Xrotation Yrotation Zrotation
												End Site
												{
													OFFSET -294.664337 0.000000 -0.113670
												}
											}
										}
									}
								}
								JOINT mixamorig:RightHandRing1
								{
									OFFSET -9.103600 -0.043076 -1.865134
									CHANNELS 6 Xposition Yposition Zposition Xrotation Yrotation Zrotation
									JOINT mixamorig:RightHandRing2
									{
										OFFSET -3.379288 0.000000 -0.001055
										CHANNELS 6 Xposition Yposition Zposition Xrotation Yrotation Zrotation
										JOINT mixamorig:RightHandRing3
										{
											OFFSET -2.889687 -0.000015 0.000379
											CHANNELS 6 Xposition Yposition Zposition Xrotation Yrotation Zrotation
											JOINT mixamorig:RightHandRing4
											{
												OFFSET -2.638809 -0.000015 0.000941
												CHANNELS 6 Xposition Yposition Zposition Xrotation Yrotation Zrotation
												End Site
												{
													OFFSET -263.880371 0.000000 0.516020
												}
											}
										}
									}
								}
								JOINT mixamorig:RightHandPinky1
								{
									OFFSET -8.076683 -0.486710 -3.806280
									CHANNELS 6 Xposition Yposition Zposition Xrotation Yrotation Zrotation
									JOINT mixamorig:RightHandPinky2
									{
										OFFSET -3.600014 -0.000015 -0.003747
										CHANNELS 6 Xposition Yposition Zposition Xrotation Yrotation Zrotation
										JOINT mixamorig:RightHandPinky3
										{
											OFFSET -2.099983 0.000000 -0.005739
											CHANNELS 6 Xposition Yposition Zposition Xrotation Yrotation Zrotation
											JOINT mixamorig:RightHandPinky4
											{
												OFFSET -2.115768 -0.000031 -0.003680
												CHANNELS 6 Xposition Yposition Zposition Xrotation Yrotation Zrotation
												End Site
												{
													OFFSET -211.577087 0.000000 -0.350686
												}
											}
										}
									}
								}
							}
						}
					}
				}
				JOINT mixamorig:LeftShoulder
				{
					OFFSET 4.570447 11.014725 -2.160855
					CHANNELS 6 Xposition Yposition Zposition Xrotation Yrotation Zrotation
					JOINT mixamorig:LeftArm
					{
						OFFSET 10.592371 -0.524597 -2.232119
						CHANNELS 6 Xposition Yposition Zposition Xrotation Yrotation Zrotation
						JOINT mixamorig:LeftForeArm
						{
							OFFSET 27.841532 -0.000031 0.000026
							CHANNELS 6 Xposition Yposition Zposition Xrotation Yrotation Zrotation
							JOINT mixamorig:LeftHand
							{
								OFFSET 28.328846 -0.000061 0.000022
								CHANNELS 6 Xposition Yposition Zposition Xrotation Yrotation Zrotation
								JOINT mixamorig:LeftHandThumb1
								{
									OFFSET 2.466141 -1.576172 2.681732
									CHANNELS 6 Xposition Yposition Zposition Xrotation Yrotation Zrotation
									JOINT mixamorig:LeftHandThumb2
									{
										OFFSET 3.217812 -1.872070 1.916482
										CHANNELS 6 Xposition Yposition Zposition Xrotation Yrotation Zrotation
										JOINT mixamorig:LeftHandThumb3
										{
											OFFSET 2.656029 -1.528778 1.514513
											CHANNELS 6 Xposition Yposition Zposition Xrotation Yrotation Zrotation
											JOINT mixamorig:LeftHandThumb4
											{
												OFFSET 2.020889 -1.154053 1.115139
												CHANNELS 6 Xposition Yposition Zposition Xrotation Yrotation Zrotation
												End Site
												{
													OFFSET 190.885437 -115.081749 130.048782
												}
											}
										}
									}
								}
								JOINT mixamorig:LeftHandIndex1
								{
									OFFSET 9.109314 -0.518021 2.259871
									CHANNELS 6 Xposition Yposition Zposition Xrotation Yrotation Zrotation
									JOINT mixamorig:LeftHandIndex2
									{
										OFFSET 3.699989 0.000000 -0.000322
										CHANNELS 6 Xposition Yposition Zposition Xrotation Yrotation Zrotation
										JOINT mixamorig:LeftHandIndex3
										{
											OFFSET 2.850006 0.000000 0.000352
											CHANNELS 6 Xposition Yposition Zposition Xrotation Yrotation Zrotation
											JOINT mixamorig:LeftHandIndex4
											{
												OFFSET 2.774864 -0.000031 -0.000027
												CHANNELS 6 Xposition Yposition Zposition Xrotation Yrotation Zrotation
												End Site
												{
													OFFSET 277.486267 0.000000 -0.009857
												}
											}
										}
									}
								}
								JOINT mixamorig:LeftHandMiddle1
								{
									OFFSET 9.533394 0.000061 0.000044
									CHANNELS 6 Xposition Yposition Zposition Xrotation Yrotation Zrotation
									JOINT mixamorig:LeftHandMiddle2
									{
										OFFSET 3.699989 -0.000015 -0.000231
										CHANNELS 6 Xposition Yposition Zposition Xrotation Yrotation Zrotation
										JOINT mixamorig:LeftHandMiddle3
										{
											OFFSET 2.949997 -0.000015 -0.000059
											CHANNELS 6 Xposition Yposition Zposition Xrotation Yrotation Zrotation
											JOINT mixamorig:LeftHandMiddle4
											{
												OFFSET 2.952896 0.000031 0.000063
												CHANNELS 6 Xposition Yposition Zposition Xrotation Yrotation Zrotation
												End Site
												{
													OFFSET 295.289337 0.000000 0.022810
												}
											}
										}
									}
								}
								JOINT mixamorig:LeftHandRing1
								{
									OFFSET 9.104523 -0.042999 -1.865074
									CHANNELS 6 Xposition Yposition Zposition Xrotation Yrotation Zrotation
									JOINT mixamorig:LeftHandRing2
									{
										OFFSET 3.150009 -0.000031 0.000043
										CHANNELS 6 Xposition Yposition Zposition Xrotation Yrotation Zrotation
										JOINT mixamorig:LeftHandRing3
										{
											OFFSET 2.949982 -0.000015 0.000040
											CHANNELS 6 Xposition Yposition Zposition Xrotation Yrotation Zrotation
											JOINT mixamorig:LeftHandRing4
											{
												OFFSET 2.644348 0.000000 0.000057
												CHANNELS 6 Xposition Yposition Zposition Xrotation Yrotation Zrotation
												End Site
												{
													OFFSET 264.434631 0.000000 0.012105
												}
											}
										}
									}
								}
								JOINT mixamorig:LeftHandPinky1
								{
									OFFSET 8.077789 -0.486847 -3.806259
									CHANNELS 6 Xposition Yposition Zposition Xrotation Yrotation Zrotation
									JOINT mixamorig:LeftHandPinky2
									{
										OFFSET 3.599953 0.000031 0.014727
										CHANNELS 6 Xposition Yposition Zposition Xrotation Yrotation Zrotation
										JOINT mixamorig:LeftHandPinky3
										{
											OFFSET 2.100021 0.000015 0.007705
											CHANNELS 6 Xposition Yposition Zposition Xrotation Yrotation Zrotation
											JOINT mixamorig:LeftHandPinky4
											{
												OFFSET 2.125504 0.000031 0.007517
												CHANNELS 6 Xposition Yposition Zposition Xrotation Yrotation Zrotation
												End Site
												{
													OFFSET 212.550781 0.000000 0.625752
												}
											}
										}
									}
								}
							}
						}
					}
				}
			}
		}
	}
	JOINT mixamorig:RightUpLeg
	{
		OFFSET -8.207787 -6.751648 -1.599560
		CHANNELS 6 Xposition Yposition Zposition Xrotation Yrotation Zrotation
		JOINT mixamorig:RightLeg
		{
			OFFSET -0.000002 -44.370117 0.345942
			CHANNELS 6 Xposition Yposition Zposition Xrotation Yrotation Zrotation
			JOINT mixamorig:RightFoot
			{
				OFFSET 0.000003 -44.423679 -3.043532
				CHANNELS 6 Xposition Yposition Zposition Xrotation Yrotation Zrotation
				JOINT mixamorig:RightToeBase
				{
					OFFSET -0.000002 -8.728671 10.710558
					CHANNELS 6 Xposition Yposition Zposition Xrotation Yrotation Zrotation
					JOINT mixamorig:RightToe_End
					{
						OFFSET -0.000001 -0.000679 9.278119
						CHANNELS 6 Xposition Yposition Zposition Xrotation Yrotation Zrotation
						End Site
						{
							OFFSET 0.000000 -0.067690 927.812134
						}
					}
				}
			}
		}
	}
	JOINT mixamorig:LeftUpLeg
	{
		OFFSET 8.207793 -6.751686 -1.599556
		CHANNELS 6 Xposition Yposition Zposition Xrotation Yrotation Zrotation
		JOINT mixamorig:LeftLeg
		{
			OFFSET -0.000004 -44.370014 0.346954
			CHANNELS 6 Xposition Yposition Zposition Xrotation Yrotation Zrotation
			JOINT mixamorig:LeftFoot
			{
				OFFSET -0.000001 -44.423672 -3.044401
				CHANNELS 6 Xposition Yposition Zposition Xrotation Yrotation Zrotation
				JOINT mixamorig:LeftToeBase
				{
					OFFSET -0.000002 -8.728669 10.710558
					CHANNELS 6 Xposition Yposition Zposition Xrotation Yrotation Zrotation
					JOINT mixamorig:LeftToe_End
					{
						OFFSET -0.000003 -0.000679 9.278133
						CHANNELS 6 Xposition Yposition Zposition Xrotation Yrotation Zrotation
						End Site
						{
							OFFSET 0.000000 -0.068021 927.813477
						}
					}
				}
			}
		}
	}
}
MOTION
Frames: 3
Frame Time: 0.033333
0.000006 104.270477 1.554256 0.000010 0.000003 -0.000113 -0.000005 10.181587 0.131522 0.000001 -0.000003 0.000084 -0.000000 9.893967 -1.470711 0.000001 0.000000 -0.000000 -0.000000 9.220802 -1.370642 0.000000 -0.000000 -0.000000 0.000001 16.740433 -2.049030 0.000000 -0.000000 -0.000000 0.000000 9.617859 1.685014 0.000000 0.000000 0.000000 0.000002 22.037384 7.501101 0.000000 -0.000000 0.000000 -4.569968 11.014880 -2.160881 0.000008 0.000001 -0.000038 -10.592875 -0.524763 -2.231921 74.632309 28.106544 -21.604534 -27.841516 0.000015 0.000546 -53.075126 108.239189 69.241692 -28.328823 0.000021 0.000027 -0.000321 -0.000044 0.000008 -2.464423 -1.573875 2.682365 -34.697252 -152.885247 17.128859 -3.215239 -1.872508 1.924622 147.384349 33.973375 33.016738 -2.654961 -1.527874 1.513067 148.927330 27.633470 -27.129207 -2.018820 -1.152012 1.108057 -0.000001 -0.000005 0.000006 -9.108399 -0.517581 2.260197 113.625094 16.309857 -24.786191 -3.700073 0.000318 0.001569 107.925779 12.235651 -16.729725 -2.850076 0.000381 -0.000208 108.184439 9.004032 -12.410667 -2.772167 -0.000017 -0.000018 0.000001 -0.000000 -0.000001 -9.532606 0.000261 0.000275 101.977279 17.210198 -21.338081 -3.700063 0.000335 0.004016 102.840437 11.597274 -14.392155 -2.950041 0.000355 -0.001750 104.898346 9.501877 -12.331824 -2.946631 -0.000000 -0.000157 -0.000000 -0.000000 -0.000000 -9.103729 -0.042776 -1.864834 98.987083 21.370043 -24.855900 -3.379354 0.000302 -0.000780 101.121094 11.541254 -14.029808 -2.889740 0.000345 0.000670 105.180310 6.401927 -8.423408 -2.638801 -0.000015 0.000940 0.000001 -0.000000 -0.000000 -8.076771 -0.486403 -3.806063 78.684654 20.468714 -16.708222 -3.600058 0.000265 -0.003539 83.874375 10.925492 -9.491560 -2.100008 0.000304 -0.005510 89.232255 5.507662 -5.218423 -2.115788 -0.000054 -0.003678 -0.000004 -0.000001 -0.000005 4.570446 11.014691 -2.160851 -0.000018 0.000010 -0.000021 10.592411 -0.524471 -2.232370 74.220305 -16.764028 12.722054 27.841825 0.000071 -0.000207 103.748012 -70.227062 83.717116 28.328825 -0.000029 0.000023 0.000023 -0.000088 -0.000000 2.465970 -1.576143 2.681905 -40.587624 160.446417 -6.944985 3.217786 -1.871731 1.916359 155.786629 -31.002533 0.549419 2.656101 -1.528634 1.514455 140.800716 -27.896393 39.820512 2.020887 -1.154064 1.115159 -0.000000 0.000005 0.000001 9.109368 -0.517814 2.259729 94.849635 -12.544885 13.631325 3.700033 0.000196 -0.000476 91.042419 -8.867506 9.046052 2.850028 0.000200 0.000194 92.308381 -8.628783 8.980906 2.774863 -0.000030 -0.000028 -0.000001 0.000000 0.000001 9.533455 0.000264 -0.000087 93.191040 -12.005249 12.678778 3.700047 0.000205 -0.000392 93.463701 -9.711820 10.311495 2.950048 0.000179 -0.000199 95.627621 -14.057034 15.496709 2.952873 -0.000030 0.000064 -0.000000 0.000000 -0.000000 9.104582 -0.042803 -1.865237 89.799222 -12.186948 12.146504 3.150046 0.000227 -0.000101 96.101615 -11.948667 13.284633 2.950049 0.000179 -0.000059 101.220542 -14.626341 17.768739 2.644310 0.000015 0.000056 -0.000002 0.000000 0.000000 8.077842 -0.486727 -3.806404 71.440575 -15.771187 11.802803 3.599992 0.000152 0.014573 74.992841 -13.756331 10.972278 2.100043 0.000177 0.007536 80.906418 -13.187045 11.676270 2.125515 -0.000016 0.007516 0.000000 0.000000 -0.000001 -8.207786 -6.751667 -1.599560 -0.077001 -0.000003 0.000080 -0.000002 -44.370110 0.345938 0.153719 -0.000000 -0.000000 0.000000 -44.423679 -3.043532 -0.076700 0.000000 -0.000002 -0.000006 -8.728667 10.710559 -0.000009 -0.000000 -0.000000 -0.000001 -0.000679 9.278123 0.000000 -0.000000 -0.000000 8.207792 -6.751710 -1.599556 -0.074518 -0.000003 0.000081 -0.000002 -44.370014 0.346960 0.148822 0.000002 0.000000 -0.000001 -44.423664 -3.044403 -0.074314 0.000000 -0.000002 -0.000004 -8.728671 10.710558 0.000007 -0.000000 -0.000000 0.000000 -0.000680 9.278137 -0.000000 0.000000 -0.000001 
0.000006 104.270477 1.554256 0.000010 0.000003 -0.000113 -0.000005 10.181587 0.131522 0.000001 -0.000003 0.000084 -0.000000 9.893967 -1.470711 0.000001 0.000000 -0.000000 -0.000000 9.220802 -1.370642 0.000000 -0.000000 -0.000000 0.000001 16.740433 -2.049030 0.000000 -0.000000 -0.000000 0.000000 9.617859 1.685014 0.000000 0.000000 0.000000 0.000002 22.037384 7.501101 0.000000 -0.000000 0.000000 -4.569968 11.014880 -2.160881 0.000008 0.000001 -0.000038 -10.592857 -0.524802 -2.231841 75.255318 41.207187 -32.323969 -27.841526 -0.000022 0.000559 -49.714778 105.545424 62.745198 -28.328833 0.000023 0.000030 -0.000321 -0.000045 0.000006 -2.464386 -1.573828 2.682338 -43.796372 -157.176901 -0.942221 -3.215242 -1.872496 1.924608 144.902409 32.887747 30.982722 -2.654963 -1.527861 1.513040 146.576775 28.587921 -19.373102 -2.018830 -1.151984 1.108058 -0.000000 -0.000003 0.000000 -9.108352 -0.517564 2.260187 112.973016 12.891866 -19.431723 -3.700070 0.000323 0.001566 110.572956 10.507291 -15.088200 -2.850071 0.000363 -0.000212 109.384769 8.922223 -12.571312 -2.772177 -0.000015 -0.000024 0.000001 0.000005 -0.000001 -9.532577 0.000276 0.000269 101.492465 14.279566 -17.600914 -3.700066 0.000330 0.004013 104.433893 11.222035 -14.324886 -2.950064 0.000334 -0.001751 104.305595 10.978651 -14.092248 -2.946633 0.000000 -0.000152 0.000000 -0.000002 0.000000 -9.103689 -0.042760 -1.864835 96.755961 18.864368 -21.129597 -3.379329 0.000317 -0.000756 103.687579 11.204687 -14.255479 -2.889761 0.000330 0.000690 106.978692 8.896561 -12.061703 -2.638822 0.000000 0.000938 0.000001 0.000001 -0.000001 -8.076747 -0.486407 -3.806040 80.072999 22.195729 -18.583147 -3.600046 0.000264 -0.003542 82.795929 12.597788 -10.785179 -2.100015 0.000315 -0.005509 84.972874 6.981398 -6.190595 -2.115766 -0.000054 -0.003678 -0.000002 -0.000003 -0.000004 4.570446 11.014691 -2.160851 -0.000018 0.000010 -0.000021 10.592438 -0.524461 -2.232383 74.080840 -25.197714 19.148142 27.841825 0.000030 -0.000177 105.811761 -75.769857 91.637547 28.328848 -0.000026 0.000022 0.000025 -0.000087 -0.000001 2.466171 -1.576134 2.681869 -10.655011 159.163926 -65.976438 3.217834 -1.871744 1.916384 164.786346 -27.732692 17.434678 2.656099 -1.528657 1.514464 142.042349 -26.932252 51.520079 2.020894 -1.154086 1.115146 -0.000001 0.000002 0.000004 9.109379 -0.517831 2.259731 93.913892 -17.110165 18.287625 3.700040 0.000190 -0.000478 91.502822 -9.775993 10.051236 2.850039 0.000236 0.000203 90.615724 -7.052667 7.127445 2.774882 -0.000014 -0.000030 0.000004 0.000000 -0.000001 9.533468 0.000225 -0.000091 92.582374 -16.218332 16.946391 3.700029 0.000220 -0.000375 93.432746 -7.786195 8.262931 2.950037 0.000202 -0.000212 94.527742 -9.653512 10.447018 2.952874 -0.000033 0.000062 -0.000003 0.000000 -0.000000 9.104591 -0.042838 -1.865227 89.837929 -15.831079 15.788872 3.150041 0.000246 -0.000108 96.343158 -9.050942 10.109570 2.950027 0.000220 -0.000072 98.940276 -9.884220 11.552220 2.644337 0.000031 0.000055 -0.000004 -0.000001 0.000001 8.077847 -0.486740 -3.806398 72.377192 -17.567064 13.341023 3.600018 0.000174 0.014567 78.145328 -14.586689 12.287296 2.100048 0.000183 0.007549 82.113115 -12.595722 11.406050 2.125511 -0.000031 0.007509 0.000000 -0.000003 0.000000 -8.207786 -6.751667 -1.599560 -0.077001 -0.000003 0.000080 -0.000002 -44.370110 0.345938 0.153719 -0.000000 -0.000000 0.000000 -44.423679 -3.043532 -0.076700 0.000000 -0.000002 -0.000006 -8.728667 10.710559 -0.000009 -0.000000 -0.000000 -0.000001 -0.000679 9.278123 0.000000 -0.000000 -0.000000 8.207792 -6.751710 -1.599556 -0.074518 -0.000003 0.000081 -0.000002 -44.370014 0.346960 0.148822 0.000002 0.000000 -0.000001 -44.423664 -3.044403 -0.074314 0.000000 -0.000002 -0.000004 -8.728671 10.710558 0.000007 -0.000000 -0.000000 0.000000 -0.000680 9.278137 -0.000000 0.000000 -0.000001 
0.000006 104.270477 1.554256 0.000010 0.000003 -0.000113 -0.000005 10.181587 0.131522 0.000001 -0.000003 0.000084 -0.000000 9.893967 -1.470711 0.000001 0.000000 -0.000000 -0.000000 9.220802 -1.370642 0.000000 -0.000000 -0.000000 0.000001 16.740433 -2.049030 0.000000 -0.000000 -0.000000 0.000000 9.617859 1.685014 0.000000 0.000000 0.000000 0.000002 22.037384 7.501101 0.000000 -0.000000 0.000000 -4.569968 11.014880 -2.160881 0.000008 0.000001 -0.000038 -10.592861 -0.524793 -2.231845 75.473283 40.047161 -31.501270 -27.841530 -0.000006 0.000572 -48.906023 103.633914 60.074540 -28.328827 0.000023 0.000025 -0.000322 -0.000043 0.000006 -2.464403 -1.573838 2.682335 -43.441028 -157.170644 -0.133685 -3.215242 -1.872501 1.924623 144.919662 32.923923 31.290131 -2.654975 -1.527856 1.513042 146.835680 28.625350 -18.789676 -2.018834 -1.152003 1.108046 -0.000002 -0.000001 0.000002 -9.108356 -0.517553 2.260184 113.049514 12.535217 -18.928186 -3.700061 0.000320 0.001552 110.095997 10.267910 -14.616909 -2.850058 0.000369 -0.000193 108.712030 8.757005 -12.188220 -2.772164 -0.000015 -0.000013 -0.000000 -0.000000 0.000000 -9.532587 0.000280 0.000276 101.683615 13.485700 -16.691065 -3.700065 0.000321 0.004035 103.942379 10.837773 -13.712068 -2.950057 0.000322 -0.001758 103.465857 10.799650 -13.657502 -2.946617 0.000000 -0.000145 -0.000000 0.000000 -0.000000 -9.103696 -0.042752 -1.864836 97.018145 17.582816 -19.786580 -3.379329 0.000327 -0.000761 103.531024 10.483009 -13.304702 -2.889746 0.000332 0.000691 106.466530 8.669479 -11.647750 -2.638808 -0.000002 0.000938 -0.000000 -0.000000 -0.000000 -8.076753 -0.486402 -3.806044 79.985996 21.124626 -17.648179 -3.600061 0.000264 -0.003548 82.244200 11.791697 -9.978926 -2.100016 0.000307 -0.005523 84.113103 6.612911 -5.766488 -2.115773 -0.000030 -0.003679 -0.000004 0.000002 -0.000005 4.570446 11.014691 -2.160851 -0.000018 0.000010 -0.000021 10.592449 -0.524461 -2.232402 73.326363 -29.128373 21.891760 27.841824 0.000041 -0.000186 107.282792 -76.258031 93.672964 28.328808 -0.000029 0.000025 0.000022 -0.000089 0.000001 2.466237 -1.576062 2.681833 6.362104 167.353664 -98.376915 3.217863 -1.871839 1.916417 166.170416 -22.930065 34.970015 2.656103 -1.528661 1.514471 142.157984 -26.798155 53.066564 2.020886 -1.154094 1.115147 0.000004 0.000004 0.000008 9.109387 -0.517834 2.259756 95.961897 -18.412114 20.380675 3.700043 0.000214 -0.000469 94.962558 -10.163149 11.096196 2.850033 0.000249 0.000204 93.849436 -7.320934 7.827241 2.774873 -0.000042 -0.000026 0.000003 0.000001 -0.000000 9.533464 0.000225 -0.000075 92.771263 -18.673956 19.572728 3.700057 0.000207 -0.000387 94.108553 -8.855644 9.508888 2.950050 0.000214 -0.000207 94.764046 -9.566313 10.395441 2.952891 -0.000015 0.000065 0.000005 0.000002 -0.000001 9.104588 -0.042841 -1.865213 89.534334 -18.126986 17.984643 3.150078 0.000232 -0.000096 95.879894 -11.010971 12.196630 2.950026 0.000217 -0.000073 97.677299 -10.205724 11.666262 2.644334 0.000015 0.000056 -0.000003 -0.000002 -0.000000 8.077845 -0.486736 -3.806387 73.762423 -20.102567 15.615272 3.600012 0.000154 0.014568 77.695997 -17.549893 14.606593 2.100046 0.000179 0.007553 80.541973 -13.917374 12.226483 2.125503 -0.000016 0.007518 -0.000001 -0.000000 0.000000 -8.207786 -6.751667 -1.599560 -0.077001 -0.000003 0.000080 -0.000002 -44.370110 0.345938 0.153719 -0.000000 -0.000000 0.000000 -44.423679 -3.043532 -0.076700 0.000000 -0.000002 -0.000006 -8.728667 10.710559 -0.000009 -0.000000 -0.000000 -0.000001 -0.000679 9.278123 0.000000 -0.000000 -0.000000 8.207792 -6.751710 -1.599556 -0.074518 -0.000003 0.000081 -0.000002 -44.370014 0.346960 0.148822 0.000002 0.000000 -0.000001 -44.423664 -3.044403 -0.074314 0.000000 -0.000002 -0.000004 -8.728671 10.710558 0.000007 -0.000000 -0.000000 0.000000 -0.000680 9.278137 -0.000000 0.000000 -0.000001 
